{
  "source": "C:\\Users\\Peter\\Desktop\\stuff\\MIUN\\quantitative_research\\video_compression\\videos\\BVI-HD\\BVI-HD_CDVL_videos\\ORIG\\KineticFastPainting_1920x1080_60fps.mp4",
  "output": "C:\\Users\\Peter\\Desktop\\stuff\\MIUN\\quantitative_research\\video_compression\\compressed_videos\\BVI-HD\\av1\\2.5\\KineticFastPainting_1920x1080_60fps_av1.mkv",
  "codec": "av1",
  "ok": "Input #0, mov,mp4,m4a,3gp,3g2,mj2, from 'C:\\Users\\Peter\\Desktop\\stuff\\MIUN\\quantitative_research\\video_compression\\videos\\BVI-HD\\BVI-HD_CDVL_videos\\ORIG\\KineticFastPainting_1920x1080_60fps.mp4':\n  Metadata:\n    major_brand     : isom\n    minor_version   : 512\n    compatible_brands: isomiso2avc1mp41\n    encoder         : Lavf54.28.101\n  Duration: 00:00:05.00, start: 0.000000, bitrate: 477980 kb/s\n  Stream #0:0[0x1](und): Video: h264 (High 4:4:4 Predictive) (avc1 / 0x31637661), yuv420p(progressive), 1920x1080, 477974 kb/s, 60 fps, 60 tbr, 60 tbn (default)\n    Metadata:\n      handler_name    : VideoHandler\n      vendor_id       : [0][0][0][0]\n[out#0/matroska @ 0000019083fd9000] Codec AVOption b:a (set bitrate (in bits/s)) has not been used for any stream. The most likely reason is either wrong type (e.g. a video option with no video streams) or that it is a private option of some decoder which was not actually used for any stream.\nStream mapping:\n  Stream #0:0 -> #0:0 (h264 (native) -> av1 (libsvtav1))\nPress [q] to stop, [?] for help\nSvt[info]: -------------------------------------------\nSvt[info]: SVT [version]:\tSVT-AV1 Encoder Lib v3.1.0-19-g6ecfe8ec\nSvt[info]: SVT [build]  :\tGCC 15.2.0\t 64 bit\nSvt[info]: LIB Build date: Aug 17 2025 11:37:13\nSvt[info]: -------------------------------------------\nSvt[info]: Level of Parallelism: 5\nSvt[info]: Number of PPCS 93\nSvt[info]: [asm level on system : up to avx2]\nSvt[info]: [asm level selected : up to avx2]\nSvt[info]: -------------------------------------------\nSvt[info]: SVT [config]: main profile\ttier (auto)\tlevel (auto)\nSvt[info]: SVT [config]: width / height / fps numerator / fps denominator \t\t: 1920 / 1080 / 60 / 1\nSvt[info]: SVT [config]: bit-depth / color format \t\t\t\t\t: 8 / YUV420\nSvt[info]: SVT [config]: preset / tune / pred struct \t\t\t\t\t: 4 / PSNR / random access\nSvt[info]: SVT [config]: gop size / mini-gop size / key-frame type \t\t\t: 321 / 16 / key frame\nSvt[info]: SVT [config]: BRC mode / target bitrate (kbps)\t\t\t\t: VBR / 2500 \nSvt[info]: SVT [config]: AQ mode / Variance Boost \t\t\t\t\t: 2 / 0\nSvt[info]: SVT [config]: sharpness / luminance-based QP bias \t\t\t\t: 0 / 0\nSvt[info]: SVT [config]: QP scale compress strength \t\t\t\t\t: 0\nSvt[info]: -------------------------------------------\nOutput #0, matroska, to 'C:\\Users\\Peter\\Desktop\\stuff\\MIUN\\quantitative_research\\video_compression\\compressed_videos\\BVI-HD\\av1\\2.5\\KineticFastPainting_1920x1080_60fps_av1.mkv':\n  Metadata:\n    major_brand     : isom\n    minor_version   : 512\n    compatible_brands: isomiso2avc1mp41\n    encoder         : Lavf62.3.100\n  Stream #0:0(und): Video: av1 (AV01 / 0x31305641), yuv420p(tv, progressive), 1920x1080, q=2-31, 2500 kb/s, 60 fps, 1k tbn (default)\n    Metadata:\n      encoder         : Lavc62.11.100 libsvtav1\n      handler_name    : VideoHandler\n      vendor_id       : [0][0][0][0]\n    Side data:\n      cpb: bitrate max/min/avg: 0/0/2500000 buffer size: 2500000 vbv_delay: N/A\nframe=    0 fps=0.0 q=0.0 size=       0KiB time=N/A bitrate=N/A speed=N/A elapsed=0:00:01.04    \nframe=    0 fps=0.0 q=0.0 size=       0KiB time=N/A bitrate=N/A speed=N/A elapsed=0:00:01.71    \nframe=    0 fps=0.0 q=0.0 size=       0KiB time=N/A bitrate=N/A speed=N/A elapsed=0:00:02.26    \nframe=    0 fps=0.0 q=0.0 size=       0KiB time=N/A bitrate=N/A speed=N/A elapsed=0:00:02.88    \nframe=    0 fps=0.0 q=0.0 size=       0KiB time=N/A bitrate=N/A speed=N/A elapsed=0:00:03.46    \nframe=    0 fps=0.0 q=0.0 size=       0KiB time=N/A bitrate=N/A speed=N/A elapsed=0:00:04.07    \nframe=    0 fps=0.0 q=0.0 size=       0KiB time=N/A bitrate=N/A speed=N/A elapsed=0:00:04.58    \nframe=    1 fps=0.2 q=37.0 size=       1KiB time=00:00:00.00 bitrate=N/A speed=   0x elapsed=0:00:05.14    \nframe=    1 fps=0.2 q=37.0 size=       1KiB time=00:00:00.00 bitrate=N/A speed=   0x elapsed=0:00:05.69    \nframe=    1 fps=0.2 q=37.0 size=       1KiB time=00:00:00.00 bitrate=N/A speed=   0x elapsed=0:00:06.26    \nframe=    3 fps=0.4 q=51.0 size=       1KiB time=00:00:00.03 bitrate= 170.9kbits/s speed=0.00485x elapsed=0:00:06.86    \nframe=    6 fps=0.8 q=53.0 size=       1KiB time=00:00:00.06 bitrate=  85.4kbits/s speed=0.00894x elapsed=0:00:07.45    \nframe=    8 fps=1.0 q=51.0 size=       1KiB time=00:00:00.10 bitrate=  57.0kbits/s speed=0.0124x elapsed=0:00:08.05    \nframe=    9 fps=1.0 q=45.0 size=       1KiB time=00:00:00.13 bitrate=  42.7kbits/s speed=0.0154x elapsed=0:00:08.65    \nframe=   11 fps=1.2 q=50.0 size=       1KiB time=00:00:00.16 bitrate=  34.2kbits/s speed=0.0181x elapsed=0:00:09.18    \nframe=   15 fps=1.5 q=49.0 size=       1KiB time=00:00:00.20 bitrate=  28.5kbits/s speed=0.0205x elapsed=0:00:09.73    \nframe=   18 fps=1.7 q=52.0 size=       1KiB time=00:00:00.28 bitrate=  20.1kbits/s speed=0.0274x elapsed=0:00:10.35    \nframe=   21 fps=1.9 q=49.0 size=       1KiB time=00:00:00.33 bitrate=  17.1kbits/s speed=0.0306x elapsed=0:00:10.89    \nframe=   23 fps=2.0 q=47.0 size=       1KiB time=00:00:00.36 bitrate=  15.5kbits/s speed=0.0321x elapsed=0:00:11.42    \nframe=   27 fps=2.2 q=49.0 size=       1KiB time=00:00:00.41 bitrate=  13.7kbits/s speed=0.0347x elapsed=0:00:12.00    \nframe=   33 fps=2.6 q=37.0 size=       1KiB time=00:00:00.53 bitrate=  10.7kbits/s speed=0.0422x elapsed=0:00:12.62    \nframe=   37 fps=2.8 q=51.0 size=       1KiB time=00:00:00.60 bitrate=   9.5kbits/s speed=0.0456x elapsed=0:00:13.15    \nframe=   39 fps=2.8 q=50.0 size=       1KiB time=00:00:00.63 bitrate=   9.0kbits/s speed=0.0462x elapsed=0:00:13.69    \nframe=   43 fps=3.0 q=52.0 size=       1KiB time=00:00:00.70 bitrate=   8.1kbits/s speed=0.0492x elapsed=0:00:14.22    \nframe=   50 fps=3.4 q=56.0 size=       1KiB time=00:00:00.81 bitrate=   7.0kbits/s speed=0.0554x elapsed=0:00:14.74    \nframe=   55 fps=3.6 q=51.0 size=       1KiB time=00:00:00.90 bitrate=   6.3kbits/s speed=0.0588x elapsed=0:00:15.29    \nframe=   58 fps=3.7 q=56.0 size=       1KiB time=00:00:00.95 bitrate=   6.0kbits/s speed=0.0599x elapsed=0:00:15.86    \nframe=   64 fps=3.9 q=55.0 size=       1KiB time=00:00:01.05 bitrate=   5.4kbits/s speed=0.0641x elapsed=0:00:16.37    \nframe=   69 fps=4.1 q=52.0 size=       1KiB time=00:00:01.13 bitrate=   5.0kbits/s speed=0.0671x elapsed=0:00:16.90    \nframe=   72 fps=4.1 q=55.0 size=       1KiB time=00:00:01.18 bitrate=   4.8kbits/s speed=0.068x elapsed=0:00:17.41    \nframe=   77 fps=4.3 q=49.0 size=       1KiB time=00:00:01.25 bitrate=   4.6kbits/s speed=0.0697x elapsed=0:00:17.94    \nframe=   83 fps=4.5 q=54.0 size=       1KiB time=00:00:01.36 bitrate=   4.2kbits/s speed=0.074x elapsed=0:00:18.47    \nframe=   87 fps=4.6 q=54.0 size=       1KiB time=00:00:01.43 bitrate=   4.0kbits/s speed=0.0755x elapsed=0:00:18.98    \nframe=   91 fps=4.7 q=53.0 size=       1KiB time=00:00:01.50 bitrate=   3.8kbits/s speed=0.0767x elapsed=0:00:19.55    \nframe=   98 fps=4.9 q=57.0 size=       1KiB time=00:00:01.61 bitrate=   3.5kbits/s speed=0.0805x elapsed=0:00:20.08    \nframe=  102 fps=5.0 q=57.0 size=       1KiB time=00:00:01.68 bitrate=   3.4kbits/s speed=0.0817x elapsed=0:00:20.60    \nframe=  106 fps=5.0 q=57.0 size=       1KiB time=00:00:01.75 bitrate=   3.3kbits/s speed=0.0828x elapsed=0:00:21.13    \nframe=  114 fps=5.3 q=57.0 size=       1KiB time=00:00:01.88 bitrate=   3.0kbits/s speed=0.0869x elapsed=0:00:21.66    \nframe=  119 fps=5.4 q=56.0 size=       1KiB time=00:00:01.96 bitrate=   2.9kbits/s speed=0.0886x elapsed=0:00:22.19    \nframe=  123 fps=5.4 q=54.0 size=       1KiB time=00:00:02.03 bitrate=   2.8kbits/s speed=0.0893x elapsed=0:00:22.76    \nframe=  131 fps=5.6 q=55.0 size=       1KiB time=00:00:02.16 bitrate=   2.6kbits/s speed=0.093x elapsed=0:00:23.30    \nframe=  135 fps=5.7 q=55.0 size=       1KiB time=00:00:02.23 bitrate=   2.6kbits/s speed=0.0937x elapsed=0:00:23.83    \nframe=  139 fps=5.7 q=54.0 size=       1KiB time=00:00:02.30 bitrate=   2.5kbits/s speed=0.0943x elapsed=0:00:24.37    \nframe=  146 fps=5.9 q=57.0 size=       1KiB time=00:00:02.41 bitrate=   2.4kbits/s speed=0.097x elapsed=0:00:24.92    \nframe=  151 fps=5.9 q=56.0 size=       1KiB time=00:00:02.50 bitrate=   2.3kbits/s speed=0.0982x elapsed=0:00:25.46    \nframe=  155 fps=6.0 q=54.0 size=       1KiB time=00:00:02.56 bitrate=   2.2kbits/s speed=0.0987x elapsed=0:00:26.01    \nframe=  162 fps=6.1 q=56.0 size=       1KiB time=00:00:02.68 bitrate=   2.1kbits/s speed=0.101x elapsed=0:00:26.53    \nframe=  167 fps=6.2 q=55.0 size=       1KiB time=00:00:02.76 bitrate=   2.1kbits/s speed=0.102x elapsed=0:00:27.08    \nframe=  171 fps=6.2 q=53.0 size=       1KiB time=00:00:02.83 bitrate=   2.0kbits/s speed=0.102x elapsed=0:00:27.68    \nframe=  177 fps=6.3 q=44.0 size=       1KiB time=00:00:02.93 bitrate=   1.9kbits/s speed=0.104x elapsed=0:00:28.19    \nframe=  182 fps=6.3 q=56.0 size=       1KiB time=00:00:03.01 bitrate=   1.9kbits/s speed=0.105x elapsed=0:00:28.71    \nframe=  187 fps=6.4 q=53.0 size=       1KiB time=00:00:03.10 bitrate=   1.8kbits/s speed=0.106x elapsed=0:00:29.25    \nframe=  194 fps=6.5 q=57.0 size=       1KiB time=00:00:03.21 bitrate=   1.8kbits/s speed=0.108x elapsed=0:00:29.83    \nframe=  199 fps=6.6 q=55.0 size=       1KiB time=00:00:03.30 bitrate=   1.7kbits/s speed=0.109x elapsed=0:00:30.35    \nframe=  205 fps=6.6 q=51.0 size=       1KiB time=00:00:03.40 bitrate=   1.7kbits/s speed=0.11x elapsed=0:00:30.90    \nframe=  209 fps=6.6 q=43.0 size=       1KiB time=00:00:03.46 bitrate=   1.6kbits/s speed=0.11x elapsed=0:00:31.42    \nframe=  217 fps=6.8 q=50.0 size=       1KiB time=00:00:03.60 bitrate=   1.6kbits/s speed=0.113x elapsed=0:00:31.95    \nframe=  221 fps=6.8 q=51.0 size=       1KiB time=00:00:03.66 bitrate=   1.6kbits/s speed=0.113x elapsed=0:00:32.47    \nframe=  227 fps=6.9 q=55.0 size=       1KiB time=00:00:03.76 bitrate=   1.5kbits/s speed=0.114x elapsed=0:00:32.98    \nframe=  233 fps=7.0 q=50.0 size=       1KiB time=00:00:03.86 bitrate=   1.5kbits/s speed=0.115x elapsed=0:00:33.51    \nframe=  237 fps=7.0 q=51.0 size=       1KiB time=00:00:03.93 bitrate=   1.4kbits/s speed=0.116x elapsed=0:00:34.01    \nframe=  245 fps=7.1 q=54.0 size=       1KiB time=00:00:04.06 bitrate=   1.4kbits/s speed=0.118x elapsed=0:00:34.54    \nframe=  249 fps=7.1 q=50.0 size=       1KiB time=00:00:04.13 bitrate=   1.4kbits/s speed=0.118x elapsed=0:00:35.06    \nframe=  255 fps=7.2 q=54.0 size=       1KiB time=00:00:04.23 bitrate=   1.3kbits/s speed=0.119x elapsed=0:00:35.59    \nframe=  261 fps=7.2 q=54.0 size=       1KiB time=00:00:04.33 bitrate=   1.3kbits/s speed=0.12x elapsed=0:00:36.12    \nframe=  265 fps=7.2 q=51.0 size=       1KiB time=00:00:04.40 bitrate=   1.3kbits/s speed=0.12x elapsed=0:00:36.64    \nframe=  273 fps=7.3 q=44.0 size=       1KiB time=00:00:04.53 bitrate=   1.3kbits/s speed=0.122x elapsed=0:00:37.16    \nframe=  281 fps=7.5 q=52.0 size=       1KiB time=00:00:04.66 bitrate=   1.2kbits/s speed=0.124x elapsed=0:00:37.68    \nframe=  285 fps=7.5 q=56.0 size=       1KiB time=00:00:04.73 bitrate=   1.2kbits/s speed=0.124x elapsed=0:00:38.21    \n[out#0/matroska @ 0000019083fd9000] video:1646KiB audio:0KiB subtitle:0KiB other streams:0KiB global headers:0KiB muxing overhead: 0.126483%\nframe=  300 fps=7.8 q=56.0 Lsize=    1648KiB time=00:00:04.98 bitrate=2709.4kbits/s speed=0.129x elapsed=0:00:38.63    \n",
  "seconds": 39.1393678188324,
  "probe_out": {}
}